<?xml version="1.0" encoding="UTF-8"?>
<svg width="200px" height="200px" viewBox="0 0 200 200" version="1.1" xmlns="http://www.w3.org/2000/svg" xmlns:xlink="http://www.w3.org/1999/xlink">
    <!-- Generator: Sketch 46.2 (44496) - http://www.bohemiancoding.com/sketch -->
    <title>Artboard</title>
    <desc>Created with Sketch.</desc>
    <defs></defs>
    <g id="Page-1" stroke="none" stroke-width="1" fill="none" fill-rule="evenodd">
        <g id="Artboard" fill-rule="nonzero" fill="#120078">
            <g id="spacesLogo" transform="translate(24.000000, 24.000000)">
                <g id="Group">
                    <path d="M26.4,30.8 C28,30.8 29.2,30.4 30.4,29.6 C31.6,28.4 32.4,27.2 32.4,25.6 C32.4,24 32,22.8 31.2,21.6 C30,20 28.4,19.6 27.2,19.2 L26.8,19.2 C24,19.2 21.2,21.6 21.2,24.4 C21.2,26 21.6,27.2 22.4,28.4 C23.2,30 24.8,30.8 26.4,30.8 L26.4,30.8 Z M10.8,53.6 C14,53.6 16.8,51.6 16.8,48.4 C16.8,46.8 16.4,45.6 15.6,44.4 C14.8,43.2 13.2,42.4 11.6,42.4 L11.2,42.4 C8.4,42.4 5.6,44.8 5.6,47.6 C5.6,49.2 6,50.4 6.8,51.6 C8,52.8 9.2,53.6 10.8,53.6 Z M11.6,75.6 C11.6,74 11.2,72.8 10.4,71.6 C9.2,70.4 8,69.6 6.4,69.6 L6,69.6 C4.8,69.6 3.2,70 2.4,71.2 C0.8,72 0,73.2 0,74.8 C0,76.4 0.4,77.6 1.2,78.8 C2,80 3.6,80.8 5.2,80.8 C8.4,80.8 11.2,78.8 11.6,75.6 L11.6,75.6 Z M11.6,96.8 C11.2,96.8 11.2,96.8 11.6,96.8 C10,96.8 8.4,97.2 7.6,98 C6.4,99.2 5.6,100.4 5.6,102 C5.6,103.6 6,104.8 6.8,106 C8,107.2 9.2,108 10.8,108 C12.4,108 13.6,107.6 14.8,106.8 C16,105.6 16.8,104.4 16.8,102.8 C17.2,99.6 14.8,96.8 11.6,96.8 Z M27.2,120 C24,120 21.2,122.4 21.2,125.2 C21.2,126.8 21.6,128 22.4,129.2 C23.6,130.4 24.8,131.2 26.4,131.2 C28,131.2 29.2,130.8 30.4,130 C31.6,128.8 32.4,127.6 32.4,126 C32.4,124.4 32,123.2 31.2,122 C30.4,120.8 28.8,120 27.2,120 Z M50.4,134.8 C50.4,134.8 50,134.8 50.4,134.8 C48.8,134.8 47.2,135.2 46.4,136 C45.2,137.2 44.4,138.4 44.4,140 C44.4,141.6 44.8,142.8 45.6,144 C46.8,145.2 48,146 49.6,146 C51.2,146 52.4,145.6 53.6,144.8 C54.8,143.6 55.6,142.4 55.6,140.8 C55.6,139.2 55.2,138 54.4,136.8 C53.2,135.6 52,135.2 50.4,134.8 Z" id="Shape"></path>
                    <circle id="Oval" cx="101.6" cy="109.2" r="5.6"></circle>
                    <circle id="Oval" cx="116.8" cy="88" r="5.6"></circle>
                    <circle id="Oval" cx="117.2" cy="62.8" r="5.6"></circle>
                    <circle id="Oval" cx="101.6" cy="40.8" r="5.6"></circle>
                    <path d="M49.6,15.2 C52.8,15.2 55.6,13.2 55.6,10 C55.6,6.8 53.6,4 50.4,4 L50,4 C48.8,4 47.2,4.4 46.4,5.6 C45.2,6.8 44.4,8 44.4,9.6 C44.4,11.2 44.8,12.4 45.6,13.6 C46.8,14.4 48,15.2 49.6,15.2 Z M75.6,122 L75.6,112.4 C55.6,111.6 39.6,95.2 39.6,75.2 C39.6,55.2 55.6,38.8 75.6,38 L75.6,28 C50,28.8 29.6,49.6 29.6,74.8 C29.6,100.4 50,121.2 75.6,122 Z M78,0 L78,9.6 C113.6,10.4 142.4,39.6 142.4,75.2 C142.4,110.8 113.6,140.4 78,140.8 L78,150.4 C118.8,150.4 152,116.8 152,75.6 C152,34.4 118.8,0.8 78,0 Z" id="Shape"></path>
                </g>
            </g>
        </g>
    </g>
</svg>